<svg width="37" height="37" viewBox="0 0 37 37" fill="none" xmlns="http://www.w3.org/2000/svg">
<g clip-path="url(#clip0_242_755)">
<path d="M10.2142 18.2134C9.8691 18.2134 9.63901 18.4435 9.63901 18.7886C9.63901 21.032 11.4222 22.8153 13.6656 22.8153C14.3559 22.8153 15.1612 23.1604 15.6789 23.6781C16.4842 24.4259 17.5196 24.8286 18.555 24.8286C19.5905 24.8286 20.6259 24.4259 21.4312 23.6781C21.9489 23.1029 22.6392 22.8153 23.4445 22.8153C25.6879 22.8153 27.4711 21.032 27.4711 18.7886C27.4711 18.0983 27.8162 17.293 28.3339 16.7753C29.887 15.1646 29.887 12.6336 28.3339 11.0805C27.7587 10.5628 27.4711 9.87248 27.4711 9.06715C27.4711 6.82374 25.6879 5.04051 23.4445 5.04051C22.7542 5.04051 21.9489 4.69537 21.4312 4.17766C20.6834 3.42986 19.7055 2.96967 18.6126 2.96967C17.5196 2.91214 16.4842 3.37233 15.6789 4.17766C15.1612 4.75289 14.4709 5.04051 13.6656 5.04051C11.4222 5.04051 9.63901 6.82374 9.63901 9.06715C9.63901 9.75744 9.29387 10.5628 8.77617 11.0805C7.22305 12.6911 7.22305 15.2222 8.77617 16.7753C9.00626 17.0054 9.35139 17.0054 9.58148 16.7753C9.81158 16.5452 9.81158 16.2001 9.58148 15.97C8.48855 14.877 8.48855 13.0363 9.58148 11.8858C10.3293 11.138 10.7895 10.0451 10.7895 9.06715C10.7895 7.4565 12.055 6.19098 13.6656 6.19098C14.7585 6.19098 15.7939 5.73079 16.4842 4.98299C17.0594 4.40775 17.8072 4.12014 18.555 4.12014C19.3028 4.12014 19.9931 4.40775 20.5683 4.98299C21.3161 5.73079 22.4091 6.19098 23.387 6.19098C24.9976 6.19098 26.2631 7.4565 26.2631 9.06715C26.2631 10.1601 26.7233 11.1955 27.4711 11.8858C28.564 12.9788 28.564 14.8195 27.4711 15.97C26.7233 16.7178 26.2631 17.8107 26.2631 18.7886C26.2631 20.3993 24.9976 21.6648 23.387 21.6648C22.294 21.6648 21.2586 22.125 20.5683 22.8728C19.4754 23.9657 17.6347 23.9657 16.4842 22.8728C15.7364 22.125 14.6435 21.6648 13.6656 21.6648C12.055 21.6648 10.7895 20.3993 10.7895 18.7886C10.7895 18.4435 10.5594 18.2134 10.2142 18.2134Z" fill="#393939"/>
<path d="M31.7867 13.8984C31.7867 13.2081 31.7292 12.4603 31.6141 11.77C31.5566 11.4824 31.269 11.2523 30.9814 11.3098C30.6937 11.3673 30.4636 11.655 30.5212 11.9426C30.6362 12.5753 30.6937 13.2656 30.6937 13.8984C30.6937 20.5711 25.2866 25.9783 18.6139 25.9783C11.9413 25.9783 6.53415 20.5711 6.53415 13.8984C6.53415 7.22565 11.9413 1.81844 18.6139 1.81844C22.1804 1.81844 25.5167 3.37157 27.8176 6.1327C28.0477 6.36279 28.3928 6.42032 28.6229 6.19022C28.853 5.96013 28.9105 5.61499 28.6804 5.38489C26.1494 2.39367 22.468 0.667969 18.5564 0.667969C11.251 0.667969 5.32617 6.59289 5.32617 13.8984C5.32617 21.2038 11.251 27.1288 18.5564 27.1288C25.8618 27.1288 31.7867 21.2038 31.7867 13.8984Z" fill="#393939"/>
<path d="M29.8882 9.70017C29.9457 9.93027 30.2908 10.1604 30.5784 10.0453C30.866 9.93027 31.0386 9.58513 30.9236 9.29751C30.751 8.89485 30.5784 8.43466 30.4059 8.08952C30.2908 7.8019 29.9457 7.68685 29.6581 7.8019C29.3704 7.91695 29.2554 8.26209 29.3704 8.5497C29.6005 8.95237 29.7156 9.29751 29.8882 9.70017ZM31.2687 29.8909L30.0607 29.7183C29.8306 29.6608 29.543 29.8334 29.4855 30.0635L27.7023 34.3202L23.7332 27.4174C23.5606 27.1298 23.2155 27.0723 22.9279 27.1873C22.6403 27.3599 22.5828 27.705 22.6978 27.9926L27.2421 35.8734C27.3571 36.0459 27.5297 36.161 27.7598 36.161C27.7598 36.161 28.1049 36.161 28.335 35.8158L30.4059 30.9263L31.2112 31.0414C31.5563 31.0989 31.7864 30.8688 31.8439 30.5237C31.8439 30.1785 31.6138 29.8909 31.2687 29.8909ZM36.2732 30.6962L31.3262 22.1252C31.1537 21.8376 30.8085 21.7801 30.5209 21.8952C30.2333 22.0677 30.1758 22.4129 30.2908 22.7005L34.6625 30.2936L33.6271 30.1785C33.282 30.121 33.0519 30.3511 32.9944 30.6962C32.9369 30.9839 33.167 31.2715 33.5121 31.329L35.7555 31.6166C35.9281 31.6166 36.1006 31.5016 36.2157 31.3865C36.3307 31.0989 36.3882 30.8688 36.2732 30.6962ZM14.1269 27.2448C13.8393 27.0723 13.4941 27.1873 13.3216 27.4749L9.3525 34.3777L7.51177 30.121C7.39672 29.8909 7.16663 29.7183 6.93654 29.7759L2.39224 30.2936L6.87902 22.5279C7.05159 22.2403 6.93654 21.8952 6.64893 21.7226C6.36131 21.55 6.01617 21.6651 5.84361 21.9527L0.781597 30.6962C0.666551 30.8688 0.666551 31.0989 0.781597 31.329C0.896642 31.5016 1.12673 31.6166 1.35682 31.5591L6.64893 30.9263L8.77727 35.8158C8.83479 35.9884 9.12241 36.161 9.3525 36.161C9.58259 36.161 9.75516 36.0459 9.8702 35.8734L14.4145 27.9926C14.472 27.7625 14.4145 27.3599 14.1269 27.2448ZM13.2065 14.6472C12.9764 14.4171 12.6313 14.4171 12.4012 14.6472C12.1711 14.8773 12.1711 15.2224 12.4012 15.4525L15.8526 18.9039C15.9676 19.019 16.1402 19.0765 16.2552 19.0765C16.3703 19.0765 16.5429 19.019 16.6579 18.9039L24.7111 10.8506C24.9412 10.6205 24.9412 10.2754 24.7111 10.0453C24.481 9.81522 24.1359 9.81522 23.9058 10.0453L16.2552 17.6959L13.2065 14.6472Z" fill="#393939"/>
<path d="M5.84386 28.2233C6.13147 28.5109 6.53413 28.1657 6.64918 27.9932L8.02972 25.6922C8.20229 25.4046 8.08725 25.0595 7.85716 24.8869C7.56954 24.7143 7.2244 24.8294 7.05184 25.0595L5.67129 27.3604C5.49872 27.7056 5.55624 28.0507 5.84386 28.2233ZM25.8043 27.1878C25.5167 27.3604 25.4591 27.7056 25.5742 27.9932L27.2423 30.8694C27.3574 31.0419 27.645 31.3295 28.0477 31.0994C28.3353 30.9269 28.3928 30.5817 28.2778 30.2941L26.6096 27.4179C26.437 27.1303 26.0919 27.0728 25.8043 27.1878ZM19.4768 7.68739C19.4768 7.68739 20.1095 7.80244 20.2246 7.16968C20.3396 6.65197 19.6493 6.53692 19.6493 6.53692C19.3042 6.4794 18.9591 6.42188 18.5564 6.42188C18.2113 6.42188 17.9812 6.65197 17.9812 6.99711C17.9812 7.34225 18.2113 7.57234 18.5564 7.57234C18.844 7.57234 19.1316 7.62987 19.4768 7.68739ZM16.0829 6.88206C13.9546 7.57234 12.2289 9.29805 11.5386 11.4264C11.4236 11.714 11.5961 12.0592 11.8838 12.1742C12.1138 12.2893 12.5165 12.0592 12.574 11.8291C13.2068 10.0459 14.6449 8.60777 16.4281 7.97501C16.7157 7.85996 16.8882 7.51482 16.7732 7.2272C16.7157 6.88206 16.3705 6.76702 16.0829 6.88206Z" fill="#393939"/>
</g>
<defs>
<clipPath id="clip0_242_755">
<rect width="36.8146" height="36.815" fill="white" transform="translate(0.148438 0.09375)"/>
</clipPath>
</defs>
</svg>
