<svg width="38" height="37" viewBox="0 0 38 37" fill="none" xmlns="http://www.w3.org/2000/svg">
<path d="M33.4316 2.39453H21.9269C20.9753 2.39453 20.2012 3.16861 20.2012 4.12021V15.6247C20.2012 16.5763 20.9753 17.3504 21.9269 17.3504H28.8297V20.2265C28.8135 20.7217 29.4703 20.9982 29.8117 20.6332C29.8117 20.6332 33.0946 17.3504 33.0946 17.3504C34.1521 17.4776 35.1669 16.7303 35.1573 15.6247C35.1573 15.6247 35.1573 4.12021 35.1573 4.12021C35.1573 3.16861 34.3832 2.39453 33.4316 2.39453ZM34.0069 15.6247C34.0069 15.9421 33.7487 16.1999 33.4316 16.1999C33.1472 16.2173 32.6585 16.1218 32.4497 16.3685C32.4497 16.3685 29.9802 18.8379 29.9802 18.8379V16.7752C29.9802 16.4572 29.7226 16.1999 29.405 16.1999H21.9269C21.6098 16.1999 21.3516 15.9421 21.3516 15.6247V4.12021C21.3516 3.80282 21.6098 3.54498 21.9269 3.54498H33.4316C33.7487 3.54498 34.0069 3.80282 34.0069 4.12021V15.6247Z" fill="#393939"/>
<path d="M31.9398 23.4294C30.2575 21.6754 27.231 21.6759 25.549 23.4294C24.6993 24.2793 24.2542 25.4534 24.3275 26.6504C24.3449 26.9358 24.2289 27.197 24.0095 27.3666C23.8039 27.5267 23.5424 27.5711 23.2921 27.4891C20.605 26.6156 17.7561 24.7658 15.2703 22.2801C12.7845 19.7943 10.9344 16.9457 10.0611 14.2589C9.97968 14.0084 10.0246 13.7466 10.1842 13.5404C10.3541 13.3214 10.6131 13.2051 10.9001 13.2231C12.0972 13.2933 13.2718 12.8506 14.1209 12.0018C15.8826 10.2396 15.8826 7.37305 14.1209 5.61087L11.8753 3.36501C10.581 2.07076 8.47558 2.07132 7.18186 3.36501L5.19802 5.34909C-0.226494 11.4368 5.00325 21.4413 10.5767 26.9734C16.6005 32.9749 26.3695 37.5333 32.2033 32.3512C32.2033 32.351 34.1854 30.3686 34.1854 30.3686C34.8123 29.7417 35.1575 28.9081 35.1575 28.0216C35.1575 27.1352 34.8123 26.3021 34.1854 25.6752L31.9398 23.4294ZM31.432 31.4949C23.6095 38.5863 6.81405 25.484 4.55416 14.8919C3.50013 10.6755 4.2285 7.6006 6.73841 5.43551C6.73839 5.43546 11.2756 9.96775 11.2756 9.96775C11.5008 10.1918 11.865 10.192 12.0893 9.96663C12.3138 9.74193 12.3132 9.37792 12.0885 9.15323L7.55177 4.62199L7.99528 4.17842C8.84072 3.33356 10.2165 3.33356 11.0619 4.17842L13.3075 6.42428C14.6206 7.73763 14.6206 9.87507 13.3075 11.1884C12.6913 11.8047 11.8388 12.131 10.97 12.0749C10.3134 12.0305 9.67548 12.3187 9.27467 12.836C8.87835 13.3478 8.766 13.996 8.96683 14.6145C10.7156 20.32 17.2309 26.8346 22.9366 28.5833C24.2081 29.0378 25.5962 27.9159 25.4757 26.5807C25.4345 25.9058 25.6227 25.2426 25.9966 24.6904L32.1163 30.8105C32.1149 30.8122 31.433 31.4931 31.432 31.4949ZM33.372 29.5552L32.9299 29.9972L26.8057 23.8727C28.0884 22.9313 30.0176 23.0908 31.1264 24.2428C31.1264 24.2428 33.372 26.4886 33.372 26.4886C34.2132 27.2956 34.2131 28.7481 33.372 29.5552ZM30.5556 8.14546H29.4052V6.995C29.4052 6.3608 28.8892 5.84455 28.2547 5.84455H27.1042C26.4697 5.84455 25.9537 6.3608 25.9537 6.995V8.14546H24.8033C24.1688 8.14546 23.6528 8.6617 23.6528 9.29591V10.4464C23.6528 11.0806 24.1688 11.5968 24.8033 11.5968H25.9537V12.7473C25.9537 13.3815 26.4697 13.8977 27.1042 13.8977H28.2547C28.8892 13.8977 29.4052 13.3815 29.4052 12.7473V11.5968H30.5556C31.1901 11.5968 31.7061 11.0806 31.7061 10.4464V9.29591C31.7061 8.6617 31.1901 8.14546 30.5556 8.14546ZM30.5556 10.4464C27.8986 10.4627 28.2755 10.1064 28.2547 12.7473C28.2547 12.7473 27.1042 12.7473 27.1042 12.7473C27.0879 10.0903 27.4442 10.4672 24.8032 10.4464C24.8033 10.4464 24.8033 9.29591 24.8033 9.29591C27.4603 9.27955 27.0834 9.63591 27.1042 6.99499C27.1042 6.995 28.2547 6.995 28.2547 6.995V8.72068C28.2547 9.03863 28.5123 9.29591 28.8299 9.29591H30.5556V10.4464Z" fill="#393939"/>
</svg>
