<svg width="38" height="37" viewBox="0 0 38 37" fill="none" xmlns="http://www.w3.org/2000/svg">
<path d="M34.5364 32.0182H25.1141C24.3609 32.0299 24.3556 33.1558 25.1141 33.1686C25.1141 33.1686 34.5364 33.1686 34.5364 33.1686C35.2895 33.1569 35.2948 32.031 34.5364 32.0182ZM34.5364 28.5668H28.6287C27.8744 28.5789 27.8712 29.7045 28.6287 29.7173C28.6287 29.7173 34.5364 29.7173 34.5364 29.7173C35.2907 29.7052 35.2939 28.5796 34.5364 28.5668ZM34.5364 25.1155H30.5499C29.795 25.1277 29.7929 26.2532 30.5499 26.2659C30.5499 26.2659 34.5364 26.2659 34.5364 26.2659C35.2913 26.2536 35.2934 25.1281 34.5364 25.1155ZM4.04891 19.9384C4.02543 9.25714 17.1445 3.82202 24.6644 11.3873C24.8819 11.6245 25.2637 11.6222 25.4874 11.3931L26.7044 10.1764C27.2295 9.64251 26.4293 8.83266 25.891 9.363C25.891 9.36297 25.0595 10.1943 25.0595 10.1943C23.4804 8.7447 21.6108 7.71878 19.5803 7.17399V4.98248H20.1555C20.9084 4.97294 20.9135 3.84341 20.1555 3.83203C20.1555 3.83203 12.1022 3.83203 12.1022 3.83203C11.3479 3.84626 11.344 4.96826 12.1022 4.98249C12.1022 4.98249 12.6774 4.98249 12.6774 4.98249V7.16778C10.6052 7.72844 8.73274 8.77929 7.19438 10.1904L6.3667 9.36298C5.84036 8.83379 5.01914 9.6416 5.55332 10.1764C5.55329 10.1764 6.38096 11.0038 6.38096 11.0038C4.21997 13.3596 2.89844 16.4972 2.89844 19.9384C2.91599 20.6901 4.03159 20.6999 4.04891 19.9384ZM13.8279 4.98249H18.4298V6.91759C16.9337 6.64405 15.3196 6.64032 13.8279 6.91262C13.8279 6.91261 13.8279 4.98249 13.8279 4.98249ZM29.3593 19.9384C29.3593 17.4544 28.6666 15.0316 27.3563 12.9323C27.1884 12.6627 26.8336 12.5807 26.564 12.7486C26.2943 12.9171 26.2123 13.2716 26.3806 13.5412C27.5765 15.4579 28.2088 17.6701 28.2088 19.9384C27.9033 34.2447 7.83764 36.5528 4.36206 22.6627C4.18896 21.9307 3.08006 22.1797 3.24083 22.9202C7.05081 38.139 29.0257 35.6042 29.3593 19.9384Z" fill="#393939"/>
<path d="M16.1296 9.58594C10.4202 9.58594 5.77539 14.231 5.77539 19.94C6.34432 33.6761 25.917 33.6721 26.4839 19.94C26.4839 14.231 21.839 9.58594 16.1296 9.58594ZM16.1296 29.1437C11.0547 29.1437 6.92586 25.0148 6.92586 19.94C7.43156 7.73017 24.8296 7.73373 25.3334 19.9401C25.3334 25.0148 21.2045 29.1437 16.1296 29.1437Z" fill="#393939"/>
<path d="M18.7789 17.4932L15.1109 21.1614L13.4804 19.5307C12.9481 19.0013 12.1363 19.8098 12.667 20.3441C12.667 20.3441 14.7042 22.3815 14.7042 22.3815C14.9184 22.6042 15.3034 22.6045 15.5176 22.3815C15.5176 22.3815 19.5923 18.3066 19.5923 18.3066C20.1203 17.7742 19.3145 16.9624 18.7789 17.4932Z" fill="#393939"/>
</svg>
