<svg width="38" height="37" viewBox="0 0 38 37" fill="none" xmlns="http://www.w3.org/2000/svg">
<g clip-path="url(#clip0_242_772)">
<path d="M32.3352 1.08984C32.335 1.08984 32.3349 1.08984 32.3347 1.08984H32.3345H5.94202C4.21634 1.08984 2.8125 2.49371 2.8125 4.21905V32.7867C2.8125 34.512 4.21634 35.9159 5.94202 35.9159H26.5653C28.2906 35.9159 29.6944 34.512 29.6944 32.7867V29.9667C29.6944 29.7321 29.5043 29.5419 29.2697 29.5419C29.0351 29.5419 28.845 29.7321 28.845 29.9667V32.7867C28.845 34.0439 27.8224 35.0665 26.5652 35.0665H5.94202C4.68486 35.0665 3.66189 34.0439 3.66189 32.7867V4.21905C3.66189 2.96188 4.68486 1.93925 5.94202 1.93925H30.0551C29.3108 2.58265 28.8451 3.57889 28.8451 4.57944V26.1649C28.8451 26.3995 29.0352 26.5897 29.2698 26.5897C29.5044 26.5897 29.6945 26.3996 29.6945 26.1649V22.5563H32.7474C34.4439 22.5563 35.8241 21.176 35.8241 19.4795V4.57872C35.8241 2.65492 34.259 1.08984 32.3352 1.08984ZM34.9747 19.4793C34.9747 20.7077 33.9756 21.7067 32.7473 21.7067H29.6957V4.57872C29.6957 3.12345 30.8799 1.93925 32.3352 1.93925C33.7904 1.93925 34.9746 3.12345 34.9746 4.57872V19.4793H34.9747Z" fill="#393939" stroke="#393939" stroke-width="0.3"/>
<path d="M5.85637 10.577H7.69919C7.93374 10.577 8.12392 10.3869 8.12392 10.1523C8.12392 9.91763 7.93381 9.72751 7.69919 9.72751H5.85637C5.62182 9.72751 5.43164 9.91763 5.43164 10.1523C5.43164 10.3869 5.62182 10.577 5.85637 10.577ZM18.0182 9.72758H9.62828C9.39373 9.72758 9.20355 9.9177 9.20355 10.1523C9.20355 10.3869 9.39366 10.5771 9.62828 10.5771H18.0181C18.2527 10.5771 18.4428 10.3869 18.4428 10.1523C18.4428 9.9177 18.2527 9.72758 18.0182 9.72758ZM18.0182 18.0784H16.1754C15.9408 18.0784 15.7506 18.2685 15.7506 18.5031C15.7506 18.7377 15.9408 18.9278 16.1754 18.9278H18.0182C18.2527 18.9278 18.4429 18.7377 18.4429 18.5031C18.4429 18.2685 18.2527 18.0784 18.0182 18.0784ZM14.6709 18.5031C14.6709 18.2685 14.4808 18.0784 14.2462 18.0784H5.85637C5.62182 18.0784 5.43164 18.2685 5.43164 18.5031C5.43164 18.7377 5.62175 18.9278 5.85637 18.9278H14.2462C14.4808 18.9278 14.6709 18.7376 14.6709 18.5031ZM5.85637 26.4292C5.62182 26.4292 5.43164 26.6193 5.43164 26.8539C5.43164 27.0886 5.62175 27.2787 5.85637 27.2787H7.69919C7.93374 27.2787 8.12392 27.0886 8.12392 26.8539C8.12392 26.6193 7.93381 26.4292 7.69919 26.4292H5.85637ZM9.62828 27.2786H18.0181C18.2527 27.2786 18.4428 27.0885 18.4428 26.8539C18.4428 26.6192 18.2527 26.4291 18.0181 26.4291H9.62828C9.39373 26.4291 9.20355 26.6192 9.20355 26.8539C9.20355 27.0885 9.39373 27.2786 9.62828 27.2786ZM26.6814 8.3811C26.6814 7.68197 26.1127 7.11328 25.4136 7.11328H21.8743C21.1752 7.11328 20.6065 7.68197 20.6065 8.3811V11.9238C20.6065 12.6229 21.1752 13.1916 21.8743 13.1916H25.4136C26.1127 13.1916 26.6814 12.6229 26.6814 11.9238V8.3811ZM25.832 11.9238C25.832 12.1544 25.6442 12.3422 25.4136 12.3422H21.8743C21.6437 12.3422 21.4559 12.1544 21.4559 11.9238V8.3811C21.4559 8.1505 21.6437 7.96269 21.8743 7.96269H25.4136C25.6442 7.96269 25.832 8.1505 25.832 8.3811V11.9238Z" fill="#393939" stroke="#393939" stroke-width="0.1"/>
<path d="M24.2639 9.15957L23.1852 10.2383L23.0259 10.079C22.86 9.91313 22.5912 9.91313 22.4254 10.079C22.2595 10.2449 22.2595 10.5137 22.4254 10.6796L22.8849 11.1391C22.9679 11.2221 23.0764 11.2635 23.1852 11.2635C23.294 11.2635 23.4025 11.222 23.4854 11.1391L24.8644 9.76012C25.0303 9.59423 25.0303 9.32545 24.8644 9.15957C24.6985 8.99369 24.4297 8.99369 24.2639 9.15957ZM26.6823 16.729C26.6823 16.0299 26.1136 15.4612 25.4145 15.4612H21.8752C21.1761 15.4612 20.6074 16.0299 20.6074 16.729V20.2717C20.6074 20.9708 21.1761 21.5395 21.8752 21.5395H25.4145C26.1136 21.5395 26.6823 20.9708 26.6823 20.2717V16.729ZM25.8329 20.2717C25.8329 20.5023 25.6451 20.6901 25.4145 20.6901H21.8752C21.6446 20.6901 21.4568 20.5023 21.4568 20.2717V16.729C21.4568 16.4984 21.6446 16.3106 21.8752 16.3106H25.4145C25.6451 16.3106 25.8329 16.4984 25.8329 16.729V20.2717Z" fill="#393939"/>
<path d="M24.2639 17.5111L23.1852 18.5898L23.0259 18.4306C22.86 18.2647 22.5912 18.2647 22.4254 18.4306C22.2595 18.5965 22.2595 18.8652 22.4254 19.0311L22.8849 19.4907C22.9679 19.5736 23.0764 19.6151 23.1852 19.6151C23.294 19.6151 23.4025 19.5736 23.4854 19.4907L24.8644 18.1117C25.0303 17.9458 25.0303 17.677 24.8644 17.5111C24.6985 17.3452 24.4297 17.3452 24.2639 17.5111ZM25.4145 23.8128H21.8752C21.1761 23.8128 20.6074 24.3815 20.6074 25.0806V28.6232C20.6074 29.3224 21.1761 29.8911 21.8752 29.8911H25.4145C26.1136 29.8911 26.6823 29.3224 26.6823 28.6232V25.0806C26.6823 24.3815 26.1136 23.8128 25.4145 23.8128ZM25.8329 28.6232C25.8329 28.8538 25.6451 29.0417 25.4145 29.0417H21.8752C21.6446 29.0417 21.4568 28.8538 21.4568 28.6232V25.0806C21.4568 24.85 21.6446 24.6622 21.8752 24.6622H25.4145C25.6451 24.6622 25.8329 24.85 25.8329 25.0806V28.6232Z" fill="#393939"/>
<path d="M24.2637 25.8627L23.185 26.9414L23.0257 26.7821C22.8598 26.6163 22.5911 26.6163 22.4252 26.7821C22.2593 26.948 22.2593 27.2168 22.4252 27.3827L22.8847 27.8422C22.9677 27.9252 23.0762 27.9666 23.185 27.9666C23.2939 27.9666 23.4023 27.9251 23.4853 27.8422L24.8642 26.4632C25.0301 26.2974 25.0301 26.0286 24.8642 25.8627C24.6983 25.6968 24.4296 25.6968 24.2637 25.8627Z" fill="#393939"/>
</g>
<defs>
<clipPath id="clip0_242_772">
<rect width="36.8145" height="36.8151" fill="white" transform="translate(0.910156 0.09375)"/>
</clipPath>
</defs>
</svg>
